# xmcd
#
# Track frame offsets:
#	150
#	11560
#	37157
#	59977
#	99090
#	121410
#	137927
#	158884
#	174880
#	202845
#
# Disc length: 2977 seconds
#
# Revision: 1
# Processed by: cddbd v1.5.1PL0 Copyright (c) Steve Scherf et al.
# Submitted via: VUPlayer 2.4
#
DISCID=850b9f0a
DTITLE=Vdelli - Live At The Indian Ocean Hotel [CD1]
DYEAR=2001
DGENRE=Blues
TTITLE0=Same Ol' Blues
TTITLE1=Waitin' For The Blues - Jesus Left Chicago
TTITLE2=Just Kissed My Baby
TTITLE3=2 by 2
TTITLE4=Fire And Rain
TTITLE5=Cold Shot
TTITLE6=Hey Joe
TTITLE7=Hot Muffins
TTITLE8=I Feel Good
TTITLE9=Couldn't Stand The Weather
EXTD=
EXTT0=
EXTT1=
EXTT2=
EXTT3=
EXTT4=
EXTT5=
EXTT6=
EXTT7=
EXTT8=
EXTT9=
PLAYORDER=
